<svg xmlns="http://www.w3.org/2000/svg" style="display: none;">
  <symbol id="icon-arrow" viewBox="0 0 20 12" stroke="none">
    <path d="M19.16 6.54c.3-.3.3-.78 0-1.08L14.31.61a.76.76 0 1 0-1.08 1.07L17.55 6l-4.32 4.32a.76.76 0 1 0 1.08 1.07l4.85-4.85ZM0 6v.76h18.62V5.24H0V6Z" />
  </symbol>
  <symbol id="icon-burger" viewBox="0 0 20 20" stroke="none">
    <path fill-rule="evenodd" clip-rule="evenodd"
      d="M3 5a1 1 0 0 1 1-1h12a1 1 0 1 1 0 2H4a1 1 0 0 1-1-1Zm0 5a1 1 0 0 1 1-1h12a1 1 0 1 1 0 2H4a1 1 0 0 1-1-1Zm0 5a1 1 0 0 1 1-1h12a1 1 0 0 1 0 2H4a1 1 0 0 1-1-1Z" />
  </symbol>
  <symbol id="icon-calculator" viewBox="0 0 16 17" stroke="none">
    <path fill-rule="evenodd" clip-rule="evenodd"
      d="M7.29.5H2.86A2.86 2.86 0 0 0 0 3.36v4.43h7.29V.5ZM0 13.64V9.21h7.29v7.29H2.86A2.86 2.86 0 0 1 0 13.64Zm8.71 2.86V9.21H16v4.43a2.86 2.86 0 0 1-2.86 2.86H8.71ZM16 3.36v4.43H8.71V.5h4.43A2.86 2.86 0 0 1 16 3.36ZM2.32 3.6a.71.71 0 1 0 0 1.43h.72v.72a.71.71 0 0 0 1.43 0v-.72h.71a.71.71 0 0 0 0-1.43h-.71V2.9a.71.71 0 0 0-1.43 0v.71h-.72Zm8 .72c0-.4.31-.72.7-.72h2.3a.71.71 0 0 1 0 1.43h-2.3a.71.71 0 0 1-.7-.71Zm.7 6.5a.71.71 0 1 0 0 1.42h2.3a.71.71 0 0 0 0-1.43h-2.3Zm-.7 3c0-.4.31-.72.7-.72h2.3a.71.71 0 0 1 0 1.43h-2.3a.71.71 0 0 1-.7-.72Zm-8.28-2.8a.72.72 0 0 1 1 0l.71.7.7-.7a.71.71 0 0 1 1.02 1.01l-.7.7.7.71a.71.71 0 1 1-1.01 1.01l-.7-.7-.71.7a.71.71 0 0 1-1.01-1l.7-.71-.7-.7a.71.71 0 0 1 0-1.02Z" />
  </symbol>
  <symbol id="icon-calendar" viewBox="0 0 24 24" stroke="none">
    <path
      d="M7.75 2.5a.75.75 0 1 0-1.5 0v1.58c-1.44.12-2.38.4-3.08 1.1-.7.69-.98 1.63-1.1 3.07h19.85c-.12-1.44-.4-2.38-1.1-3.08-.69-.7-1.63-.97-3.07-1.1V2.5a.75.75 0 1 0-1.5 0v1.51L14 4h-4l-2.25.01V2.5Z" />
    <path fill-rule="evenodd" clip-rule="evenodd"
      d="m2 12 .01-2.25H22L22 12v2c0 3.77 0 5.66-1.17 6.83S17.77 22 14 22h-4c-3.77 0-5.66 0-6.83-1.17S2 17.77 2 14v-2Zm15 2a1 1 0 1 0 0-2 1 1 0 0 0 0 2Zm0 4a1 1 0 1 0 0-2 1 1 0 0 0 0 2Zm-4-5a1 1 0 1 1-2 0 1 1 0 0 1 2 0Zm0 4a1 1 0 1 1-2 0 1 1 0 0 1 2 0Zm-6-3a1 1 0 1 0 0-2 1 1 0 0 0 0 2Zm0 4a1 1 0 1 0 0-2 1 1 0 0 0 0 2Z" />
  </symbol>
  <symbol id="icon-check" viewBox="0 0 10 8" stroke="none">
    <path d="M9.19 1a.6.6 0 0 0-.88 0L3.62 5.69 1.7 3.75a.6.6 0 0 0-.88 0 .6.6 0 0 0 0 .88L3.2 7c.12.13.25.19.44.19.18 0 .3-.07.43-.19L9.2 1.87a.6.6 0 0 0 0-.87Z" />
  </symbol>
  <symbol id="icon-check-fill" viewBox="0 0 21 21" stroke="none">
    <path
      d="M19.6744 8.13937C19.3209 7.77 18.9553 7.38938 18.8175 7.05469C18.69 6.74813 18.6825 6.24 18.675 5.74781C18.6609 4.83281 18.6459 3.79594 17.925 3.075C17.2041 2.35406 16.1672 2.33906 15.2522 2.325C14.76 2.3175 14.2519 2.31 13.9453 2.1825C13.6116 2.04469 13.23 1.67906 12.8606 1.32562C12.2137 0.704062 11.4788 0 10.5 0C9.52125 0 8.78719 0.704062 8.13937 1.32562C7.77 1.67906 7.38938 2.04469 7.05469 2.1825C6.75 2.31 6.24 2.3175 5.74781 2.325C4.83281 2.33906 3.79594 2.35406 3.075 3.075C2.35406 3.79594 2.34375 4.83281 2.325 5.74781C2.3175 6.24 2.31 6.74813 2.1825 7.05469C2.04469 7.38844 1.67906 7.77 1.32562 8.13937C0.704062 8.78625 0 9.52125 0 10.5C0 11.4788 0.704062 12.2128 1.32562 12.8606C1.67906 13.23 2.04469 13.6106 2.1825 13.9453C2.31 14.2519 2.3175 14.76 2.325 15.2522C2.33906 16.1672 2.35406 17.2041 3.075 17.925C3.79594 18.6459 4.83281 18.6609 5.74781 18.675C6.24 18.6825 6.74813 18.69 7.05469 18.8175C7.38844 18.9553 7.77 19.3209 8.13937 19.6744C8.78625 20.2959 9.52125 21 10.5 21C11.4788 21 12.2128 20.2959 12.8606 19.6744C13.23 19.3209 13.6106 18.9553 13.9453 18.8175C14.2519 18.69 14.76 18.6825 15.2522 18.675C16.1672 18.6609 17.2041 18.6459 17.925 17.925C18.6459 17.2041 18.6609 16.1672 18.675 15.2522C18.6825 14.76 18.69 14.2519 18.8175 13.9453C18.9553 13.6116 19.3209 13.23 19.6744 12.8606C20.2959 12.2137 21 11.4788 21 10.5C21 9.52125 20.2959 8.78719 19.6744 8.13937ZM14.7806 8.78063L9.53063 14.0306C9.46097 14.1004 9.37825 14.1557 9.2872 14.1934C9.19616 14.2312 9.09856 14.2506 9 14.2506C8.90144 14.2506 8.80384 14.2312 8.7128 14.1934C8.62175 14.1557 8.53903 14.1004 8.46937 14.0306L6.21937 11.7806C6.14969 11.7109 6.09442 11.6282 6.0567 11.5372C6.01899 11.4461 5.99958 11.3485 5.99958 11.25C5.99958 11.1515 6.01899 11.0539 6.0567 10.9628C6.09442 10.8718 6.14969 10.7891 6.21937 10.7194C6.36011 10.5786 6.55098 10.4996 6.75 10.4996C6.84855 10.4996 6.94613 10.519 7.03717 10.5567C7.12822 10.5944 7.21094 10.6497 7.28063 10.7194L9 12.4397L13.7194 7.71937C13.7891 7.64969 13.8718 7.59442 13.9628 7.5567C14.0539 7.51899 14.1515 7.49958 14.25 7.49958C14.3485 7.49958 14.4461 7.51899 14.5372 7.5567C14.6282 7.59442 14.7109 7.64969 14.7806 7.71937C14.8503 7.78906 14.9056 7.87178 14.9433 7.96283C14.981 8.05387 15.0004 8.15145 15.0004 8.25C15.0004 8.34855 14.981 8.44613 14.9433 8.53717C14.9056 8.62822 14.8503 8.71094 14.7806 8.78063Z" />
  </symbol>
  <symbol id="icon-clock" viewBox="0 0 20 20" stroke="none">
    <path d="M10 0c5.523 0 10 4.477 10 10s-4.477 10-10 10S0 15.523 0 10 4.477 0 10 0Zm0 4a1 1 0 0 0-1 1v5a1 1 0 0 0 .293.707l3 3a1 1 0 0 0 1.414-1.414L11 9.586V5a1 1 0 0 0-1-1Z" />
  </symbol>
  <symbol id="icon-down" viewBox="0 0 16 16" stroke="none">
    <path d="m8.36 10.62 5.31-5.57a.5.5 0 0 0 0-.7.46.46 0 0 0-.67 0L8 9.6 3 4.35a.46.46 0 0 0-.67 0 .5.5 0 0 0 0 .7l5.3 5.57a.5.5 0 0 0 .73 0Z" />
  </symbol>
  <symbol id="icon-headphones" viewBox="0 0 24 24" stroke="none">
    <path
      d="M7 21H5c-.55 0-1.02-.2-1.41-.59-.4-.39-.59-.86-.59-1.41v-7c0-1.25.24-2.42.71-3.51A9.18 9.18 0 0 1 8.5 3.7 8.73 8.73 0 0 1 12 3c1.25 0 2.42.24 3.51.71A9.17 9.17 0 0 1 20.3 8.5c.47 1.09.71 2.26.71 3.51v7c0 .55-.2 1.02-.59 1.41-.39.4-.86.6-1.41.59h-2c-.55 0-1.02-.2-1.41-.59-.4-.39-.59-.86-.59-1.41v-4c0-.55.2-1.02.59-1.41.39-.4.86-.59 1.41-.59h2v-1c0-1.95-.68-3.6-2.04-4.96A6.76 6.76 0 0 0 12 5c-1.95 0-3.6.68-4.96 2.04A6.77 6.77 0 0 0 5 12v1h2c.55 0 1.02.2 1.41.59.4.39.6.86.59 1.41v4c0 .55-.2 1.02-.59 1.41-.39.4-.86.6-1.41.59Z" />
  </symbol>
  <symbol id="icon-mail" viewBox="0 0 16 17" stroke="none">
    <path d="M14.667 5.523v6.31a2 2 0 0 1-1.883 1.997l-.117.003H3.333a2 2 0 0 1-1.996-1.883l-.004-.117v-6.31L7.63 9.72l.077.044a.667.667 0 0 0 .586 0l.077-.044 6.297-4.198Z" />
    <path d="M12.667 3.167c.72 0 1.351.38 1.703.95L8 8.365 1.63 4.118A2 2 0 0 1 3.2 3.17l.133-.004h9.334Z" />
  </symbol>
  <symbol id="icon-new-tab" viewBox="0 0 13 12" stroke="none">
    <path d="M12.15 1a.61.61 0 0 0-.61-.61h-5.5a.61.61 0 1 0 0 1.22h4.89v4.88a.61.61 0 0 0 1.22 0V1ZM1 11.54l.43.43L11.97 1.43 11.54 1 11.1.57.57 11.1l.43.44Z" />
  </symbol>
  <symbol id="icon-percent-fill" viewBox="0 0 20 20" stroke="none">
    <path
      d="M9.999 0c.851 0 1.667.34 2.266.942l.698.698a1.2 1.2 0 0 0 .846.349h1a3.2 3.2 0 0 1 3.2 3.2v1c0 .316.125.62.346.843l.698.698a3.2 3.2 0 0 1 .002 4.536l-.697.698a1.2 1.2 0 0 0-.35.845v1a3.2 3.2 0 0 1-3.2 3.2h-1a1.2 1.2 0 0 0-.842.347l-.698.698a3.2 3.2 0 0 1-4.536.002l-.698-.698a1.2 1.2 0 0 0-.845-.349h-1a3.2 3.2 0 0 1-3.2-3.2v-1a1.2 1.2 0 0 0-.347-.843l-.698-.698a3.2 3.2 0 0 1-.002-4.536l.698-.698a1.2 1.2 0 0 0 .349-.845v-1l.005-.182a3.2 3.2 0 0 1 3.195-3.018h1a1.2 1.2 0 0 0 .843-.347L7.73.944A3.2 3.2 0 0 1 9.999 0Zm2.49 10.989a1.5 1.5 0 1 0 0 3 1.5 1.5 0 0 0 0-3Zm1.206-4.707a1 1 0 0 0-1.414 0l-6 6a1 1 0 0 0 1.415 1.414l6-6a1 1 0 0 0 0-1.414ZM7.49 5.989a1.5 1.5 0 1 0 0 3 1.5 1.5 0 0 0 0-3Z" />
  </symbol>
  <symbol id="icon-phone" viewBox="0 0 14 14" stroke="none">
    <path
      d="m9.32 8.36-.26.27s-.63.62-2.36-1.09C4.98 5.83 5.61 5.2 5.61 5.2l.17-.17c.41-.4.45-1.07.09-1.55l-.73-.98c-.45-.6-1.31-.67-1.82-.16l-.92.9c-.25.26-.42.58-.4.94.05.93.47 2.92 2.8 5.24 2.49 2.47 4.81 2.56 5.76 2.48.3-.03.56-.18.77-.4l.83-.82c.56-.55.4-1.5-.31-1.9l-1.12-.6a1.19 1.19 0 0 0-1.4.18Z" />
  </symbol>
  <symbol id="icon-pin" viewBox="0 0 12 13" stroke="none">
    <path
      d="M5.058 11.405c.303.25.619.479.942.702.324-.22.639-.454.942-.701.507-.416.984-.867 1.427-1.35C9.391 8.939 10.5 7.319 10.5 5.5a4.5 4.5 0 0 0-9 0c0 1.819 1.109 3.438 2.131 4.556.443.483.92.933 1.427 1.35ZM6 7.125a1.625 1.625 0 1 1 0-3.25 1.625 1.625 0 0 1 0 3.25Z" />
  </symbol>
  <symbol id="icon-play" viewBox="0 0 18 22" stroke="none">
    <path d="M18 11 0 21.4V.6L18 11Z" />
  </symbol>
  <symbol id="icon-telegram" viewBox="0 0 22 18" stroke="none">
    <path fill-rule="evenodd" clip-rule="evenodd"
      d="M18.97.43a1.5 1.5 0 0 1 2.06 1.63L18.76 15.8a1.98 1.98 0 0 1-2.9 1.43 58.43 58.43 0 0 1-3.88-2.3c-.68-.44-2.76-1.86-2.5-2.88.21-.87 3.71-4.12 5.71-6.06.79-.76.43-1.2-.5-.5-2.3 1.74-6 4.38-7.22 5.13-1.08.65-1.64.76-2.31.65-1.23-.2-2.36-.52-3.3-.9-1.25-.52-1.18-2.25 0-2.75l17.1-7.2Z" />
  </symbol>
  <symbol id="icon-truck" viewBox="0 0 24 25" stroke="none">
    <path
      d="M15 4.5a2 2 0 0 1 2 2v1h1.5a2 2 0 0 1 1.6.8l1.5 1.8c.2.4.4.8.4 1.3v4.1a2 2 0 0 1-2 2h-1a3 3 0 0 1-6 0h-3a3 3 0 0 1-6 0 2 2 0 0 1-2-2v-9a2 2 0 0 1 2-2h11Zm-8 12a1 1 0 1 0 0 2 1 1 0 0 0 0-2Zm9 0a1 1 0 1 0 0 2 1 1 0 0 0 0-2Zm2.5-7H17v4h3v-2.2l-1.5-1.8Z" />
  </symbol>
  <symbol id="icon-volumes" viewBox="0 0 24 24" stroke="none">
    <path fill-rule="evenodd" clip-rule="evenodd"
      d="M18.5 4a1.5 1.5 0 1 0-3 0v.5H4a1.5 1.5 0 0 0 0 3h11.5V8a1.5 1.5 0 1 0 3 0v-.5H20a1.5 1.5 0 0 0 0-3h-1.5V4ZM4 10.5a1.5 1.5 0 1 0 0 3h1.5v.5a1.5 1.5 0 0 0 3 0v-.5H20a1.5 1.5 0 1 0 0-3H8.5V10a1.5 1.5 0 0 0-3 0v.5H4ZM2.5 18A1.5 1.5 0 0 1 4 16.5h11.5V16a1.5 1.5 0 1 1 3 0v.5H20a1.5 1.5 0 1 1 0 3h-1.5v.5a1.5 1.5 0 1 1-3 0v-.5H4A1.5 1.5 0 0 1 2.5 18Z" />
  </symbol>
  <symbol id="icon-whatsapp" viewBox="0 0 20 20" stroke="none">
    <path
      d="M17.05 2.91A9.82 9.82 0 0 0 10.04 0C4.58 0 .13 4.45.13 9.91c0 1.75.46 3.45 1.32 4.95L.05 20l5.25-1.38c1.45.79 3.08 1.21 4.74 1.21 5.46 0 9.91-4.45 9.91-9.91 0-2.65-1.03-5.14-2.9-7.01Zm-7.01 15.24c-1.48 0-2.93-.4-4.2-1.15l-.3-.18-3.12.82.83-3.04-.2-.31a8.26 8.26 0 0 1-1.26-4.38c0-4.54 3.7-8.24 8.24-8.24 2.2 0 4.27.86 5.82 2.42a8.179 8.179 0 0 1 2.41 5.83c.02 4.54-3.68 8.23-8.22 8.23Zm4.52-6.16c-.25-.12-1.47-.72-1.69-.81-.23-.08-.39-.12-.56.12-.17.25-.64.81-.78.97-.14.17-.29.19-.54.06-.25-.12-1.05-.39-1.99-1.23-.74-.66-1.23-1.47-1.38-1.72-.14-.25-.02-.38.11-.51.11-.11.25-.29.37-.43s.17-.25.25-.41c.08-.17.04-.31-.02-.43s-.56-1.34-.76-1.84c-.2-.48-.41-.42-.56-.43h-.48c-.17 0-.43.06-.66.31-.22.25-.86.85-.86 2.07 0 1.22.89 2.4 1.01 2.56.12.17 1.75 2.67 4.23 3.74.59.26 1.05.41 1.41.52.59.19 1.13.16 1.56.1.48-.07 1.47-.6 1.67-1.18.21-.58.21-1.07.14-1.18-.07-.11-.22-.16-.47-.28Z" />
  </symbol>
  <symbol id="icon-window-1" viewBox="0 0 22 32" fill="none">
    <path stroke-width="2" d="M1 1.5h20v29H1z" />
  </symbol>
  <symbol id="icon-window-2" viewBox="0 0 30 32" fill="none">
    <path stroke-width="2" d="M1 1.5h13.9v29H1zM15.1 1.5H29v29H15.1z" />
  </symbol>
  <symbol id="icon-window-3" viewBox="0 0 43 31" stroke="none">
    <path d="M43 31H0V0h43v31ZM2 29h12V2H2v27Zm28 0h11V2H30v27Zm-14 0h12V2H16v27Z" />
  </symbol>
  <symbol id="icon-window-4" viewBox="0 0 45 43" stroke="none">
    <path d="M45 0v31H18v12H0V0h45ZM2 31v10h14V31H2Zm16-2h25V2H18v27ZM2 29h14V2H2v27Z" />
  </symbol>
  <symbol id="icon-window-5" viewBox="0 0 18 44" stroke="none">
    <path d="M18 43.5H0V.5h18v43Zm-16-12v10h14v-10H2Zm0-2h14v-27H2v27Z" />
  </symbol>
</svg>
